<svg width="52" height="63" viewBox="0 0 52 63" fill="none" xmlns="http://www.w3.org/2000/svg">
<mask id="mask0" style="mask-type:alpha" maskUnits="userSpaceOnUse" x="2" y="0" width="48" height="48">
<circle cx="26" cy="24" r="24" fill="#C4C4C4"/>
</mask>
<g mask="url(#mask0)">
<path d="M25.8801 48.62C39.3061 48.62 50.1901 37.736 50.1901 24.31C50.1901 10.884 39.3061 0 25.8801 0C12.454 0 1.57007 10.884 1.57007 24.31C1.57007 37.736 12.454 48.62 25.8801 48.62Z" fill="#8C5BD8"/>
<path d="M44.11 54.9L36.87 47.65V38.76L41.57 43.46V47.1L43.07 48.56H49.17V42.19L36.57 29.58H33.17C34.9931 28.0774 36.3078 26.0486 36.9343 23.7707C37.5608 21.4928 37.4687 19.0769 36.6705 16.8534C35.8722 14.6298 34.4069 12.707 32.4746 11.3476C30.5424 9.9883 28.2375 9.25879 25.875 9.25879C23.5125 9.25879 21.2076 9.9883 19.2754 11.3476C17.3431 12.707 15.8778 14.6298 15.0795 16.8534C14.2813 19.0769 14.1892 21.4928 14.8157 23.7707C15.4422 26.0486 16.7569 28.0774 18.58 29.58H15.22L2.57 42.19V48.56H8.67L10.17 47.1V43.46L14.87 38.76V47.65L7.65 54.9L0.5 58V62.08H17.63V56L21.57 52.09H30.2L34.2 56V62.12H51.26V58L44.11 54.9Z" fill="white" stroke="#8C5BD8" stroke-miterlimit="10"/>
</g>
</svg>
